<svg width="64" height="64" viewBox="0 0 64 64" fill="none" xmlns="http://www.w3.org/2000/svg">
  <defs>
    <linearGradient id="bg" x1="8" y1="8" x2="56" y2="56" gradientUnits="userSpaceOnUse">
      <stop stop-color="#0B1F33"/>
      <stop offset="1" stop-color="#132F4C"/>
    </linearGradient>
    <linearGradient id="plane" x1="18" y1="20" x2="46" y2="44" gradientUnits="userSpaceOnUse">
      <stop stop-color="#F5FBFF"/>
      <stop offset="1" stop-color="#D9E8F6"/>
    </linearGradient>
    <linearGradient id="accent" x1="20" y1="28" x2="44" y2="36" gradientUnits="userSpaceOnUse">
      <stop stop-color="#35D07F"/>
      <stop offset="1" stop-color="#7EF0B0"/>
    </linearGradient>
  </defs>
  <rect x="2" y="2" width="60" height="60" rx="16" fill="url(#bg)"/>
  <rect x="2.75" y="2.75" width="58.5" height="58.5" rx="15.25" stroke="#284B6D" stroke-opacity="0.8" stroke-width="1.5"/>

  <path d="M13 38L34 29V18C34 16.3431 32.6569 15 31 15H29C27.3431 15 26 16.3431 26 18V28L13 38Z" fill="url(#accent)"/>
  <path d="M51 34L34 29V18C34 16.3431 35.3431 15 37 15H39C40.6569 15 42 16.3431 42 18V28L51 34Z" fill="url(#accent)"/>
  <path d="M11 41L34 33L54 34C55.1046 34 56 34.8954 56 36C56 37.1046 55.1046 38 54 38H34L11 41Z" fill="url(#plane)"/>
  <path d="M23 45L34 41V35L18 40C17.1716 40.2761 16.7239 41.1716 17 42C17.2761 42.8284 18.1716 43.2761 19 43L23 45Z" fill="url(#plane)"/>
  <path d="M34 33L36.5 42.5L41 43L39 33H34Z" fill="#BFD0E3"/>
  <path d="M25 30.5L20 27.5" stroke="#7EF0B0" stroke-width="2.5" stroke-linecap="round"/>
  <circle cx="31.5" cy="29.5" r="1.6" fill="#FFD34D"/>
  <circle cx="37.5" cy="30.5" r="1.3" fill="#35D07F"/>
  <circle cx="42.5" cy="31.5" r="1.1" fill="#7EF0B0"/>
</svg>
